<?xml version="1.0" encoding="UTF-8" standalone="no"?>
<svg
   xmlns:dc="http://purl.org/dc/elements/1.1/"
   xmlns:cc="http://creativecommons.org/ns#"
   xmlns:rdf="http://www.w3.org/1999/02/22-rdf-syntax-ns#"
   xmlns:svg="http://www.w3.org/2000/svg"
   xmlns="http://www.w3.org/2000/svg"
   xmlns:sodipodi="http://sodipodi.sourceforge.net/DTD/sodipodi-0.dtd"
   xmlns:inkscape="http://www.inkscape.org/namespaces/inkscape"
   version="1.1"
   id="svg28"
   xml:space="preserve"
   width="217"
   height="41"
   viewBox="0 0 585.9 110.7"
   sodipodi:docname="logo.svg"
   inkscape:version="1.0.2 (1.0.2+r75+1)"><metadata
     id="metadata34"><rdf:RDF><cc:Work
         rdf:about=""><dc:format>image/svg+xml</dc:format><dc:type
           rdf:resource="http://purl.org/dc/dcmitype/StillImage" /><dc:title></dc:title></cc:Work></rdf:RDF></metadata><defs
     id="defs32"><clipPath
       clipPathUnits="userSpaceOnUse"
       id="clipPath44"><path
         d="M 0,595.275 H 841.89 V 0 H 0 Z"
         id="path42" /></clipPath></defs><sodipodi:namedview
     pagecolor="#ffffff"
     bordercolor="#666666"
     borderopacity="1"
     objecttolerance="10"
     gridtolerance="10"
     guidetolerance="10"
     inkscape:pageopacity="0"
     inkscape:pageshadow="2"
     inkscape:window-width="1920"
     inkscape:window-height="1016"
     id="namedview30"
     showgrid="false"
     inkscape:zoom="1.9527491"
     inkscape:cx="86.411188"
     inkscape:cy="26.982857"
     inkscape:window-x="1920"
     inkscape:window-y="0"
     inkscape:window-maximized="1"
     inkscape:current-layer="g36"
     inkscape:document-rotation="0"
     scale-x="2.7" /><g
     id="g36"
     inkscape:groupmode="layer"
     inkscape:label="cecbank-logo-poz-A4-2col"
     transform="matrix(1.3333333,0,0,-1.3333333,0,793.7)"><g
       id="g38"
       transform="matrix(0.62546687,0,0,0.62546687,-43.990799,367.36726)"><g
         id="g40"
         clip-path="url(#clipPath44)"><g
           id="g46"
           transform="translate(385.6895,232.293)"><path
             d="m 0,0 c -4.403,0 -28.958,8.552 -43.601,23.479 -8.143,8.301 -12.175,17.292 -11.996,26.724 l 1.868,76.481 0.097,4.007 h 4.007 99.261 4.008 l 0.093,-4.007 1.867,-76.458 C 55.765,40.751 51.699,31.742 43.531,23.431 28.912,8.567 4.938,0 0,0"
             style="fill:#e8f176;fill-opacity:1;fill-rule:nonzero;stroke:none"
             id="path48" /></g><g
           id="g50"
           transform="translate(427.1201,281.8076)"><path
             d="m 0,0 c 0.167,-9.703 -9.404,-18.155 -17.464,-23.529 -5.845,-3.901 -11.834,-6.83 -16.589,-8.817 -3.972,-1.544 -3.763,2.996 -3.119,5.723 1.099,4.64 2.946,6.684 9.402,10.442 5.798,3.374 5.652,5.63 1.925,7.092 -3.765,1.515 1.68,5.803 8.694,11.059 7.538,5.648 9.393,11.675 1.33,11.927 -8.404,0.267 -6.362,2.342 2.107,12.941 7.264,9.098 7.881,15.971 -2.432,13.33 -4.66,-1.192 -5.027,0.363 -4.003,6.745 0.856,5.284 -2.921,6.948 -7.214,5.198 -2.733,-1.115 -3.042,0.594 -6.591,4.073 -4.882,4.79 -9.338,4.559 -9.338,-4.335 0,-10.173 9.582,-41.662 -1.837,-85.649 -0.744,0.272 -2.501,0.997 -2.559,1.02 -4.604,1.98 -1.483,5.763 -0.447,7.707 2.266,4.266 -1.039,5.948 -8.032,10.468 -5.847,3.777 -5.721,6.997 -1.22,7.495 2.859,0.319 4.101,2.301 -8.286,11.105 -14.093,10.022 -10.209,15.189 -0.607,14.695 5.183,-0.27 0.35,4.694 -3.314,10.495 -8.508,13.45 -4.062,16.554 3.829,15.211 10.077,-1.719 7.205,-0.638 9.235,7.659 0.953,3.891 4.128,6.988 7.862,8.176 2.098,0.672 4.201,1.058 3.566,4.36 -0.197,1.038 -0.711,2.481 -1.236,3.804 H -1.669 L 0.006,-0.109 Z M 8.205,77.064 H -91.057 L -92.922,0.607 c -0.569,-29.415 46.885,-46.012 51.491,-46.012 4.603,0 51.994,16.597 51.5,46.012 z"
             style="fill:#113d10;fill-opacity:1;fill-rule:nonzero;stroke:none"
             id="path52" /></g><g
           id="g54"
           transform="translate(496.7578,270.4336)"><path
             d="m 0,0 c 2.436,-0.116 3.596,-0.116 4.754,-0.116 11.245,0 16.462,4.636 16.462,14.492 0,9.623 -5.68,14.258 -17.505,14.258 H 0 Z m 0,36.519 c 1.162,-0.118 2.085,-0.118 2.665,-0.118 9.856,0 14.606,4.406 14.606,13.564 0,8.812 -4.403,12.752 -14.256,12.752 H 0 Z m 12.288,33.734 c 16.812,0 26.084,-6.26 26.084,-17.622 0,-9.389 -5.217,-14.954 -17.389,-18.663 7.419,-0.581 11.361,-1.74 15.186,-4.638 4.405,-3.245 6.496,-7.998 6.496,-14.376 0,-14.375 -10.667,-22.489 -29.446,-22.489 h -42.547 v 6.723 c 0,0 6.348,0.398 7.302,0.464 0.955,0.066 1.853,1.248 1.853,2.202 v 59.474 c 0,0.953 -0.901,1.677 -1.853,1.738 -0.952,0.061 -7.302,0.463 -7.302,0.463 v 6.724 z"
             style="fill:#113d10;fill-opacity:1;fill-rule:nonzero;stroke:none"
             id="path56" /></g><g
           id="g58"
           transform="translate(585.0654,292.459)"><path
             d="m 0,0 c -7.071,-1.157 -8.113,-1.389 -10.782,-2.433 -4.637,-1.971 -6.723,-4.753 -6.723,-8.926 0,-4.87 3.359,-8.233 8.465,-8.233 2.549,0 4.519,0.464 9.04,2.205 z m -14.723,10.319 h -13.794 c -4.986,0 -6.958,1.276 -6.958,4.521 0,8.116 13.219,14.491 29.679,14.491 8.926,0 15.765,-1.971 20.056,-5.913 4.174,-3.941 5.1,-7.188 5.1,-18.664 V -21.33 c 0,-0.746 0.56,-1.439 1.277,-1.507 0.715,-0.069 6.375,-0.579 6.375,-0.579 v -6.145 H 1.393 l -1.623,6.495 c -9.507,-5.913 -15.073,-8.001 -21.216,-8.001 -9.855,0 -16.811,6.607 -16.811,15.881 0,5.567 2.434,10.435 6.84,13.565 3.594,2.664 11.943,5.1 31.417,9.272 v 3.363 c 0,8.115 -4.289,11.361 -14.723,11.361 z"
             style="fill:#113d10;fill-opacity:1;fill-rule:nonzero;stroke:none"
             id="path60" /></g><g
           id="g62"
           transform="translate(618.3428,269.043)"><path
             d="M 0,0 C 0,0 5.545,0.537 6.028,0.579 6.525,0.622 7.3,1.043 7.3,2.086 v 38.141 h -8.111 v 5.564 l 20.749,6.839 h 6.727 v -7.535 c 12.288,6.261 16.46,7.652 22.488,7.652 11.014,0 16.23,-6.839 16.23,-21.213 0,0 0.006,-28.677 0,-29.448 C 65.377,1.315 65.917,0.649 66.66,0.579 67.401,0.51 72.918,0 72.918,0 V -6.145 H 40.112 V 0 c 0,0 3.611,0.46 4.519,0.579 0.907,0.122 1.391,0.854 1.391,1.507 v 24.693 c 0,10.434 -2.897,13.333 -13.448,13.333 -2.664,0 -4.172,-0.118 -5.909,-0.348 V 2.086 c 0,-0.759 0.749,-1.389 1.505,-1.507 C 28.74,0.51 33.037,0 33.037,0 V -6.145 H 0 Z"
             style="fill:#113d10;fill-opacity:1;fill-rule:nonzero;stroke:none"
             id="path64" /></g><g
           id="g66"
           transform="translate(697.0947,268.8115)"><path
             d="M 0,0 C 0,0 4.75,0.669 5.681,0.811 6.61,0.954 7.187,1.61 7.187,2.317 v 65.618 h -8.459 v 5.564 l 22.487,6.723 h 5.332 V 24.574 h 3.25 c 0,0 15.824,18.15 16.14,18.551 0.419,0.531 0.135,1.322 -0.61,1.393 -0.554,0.048 -5.331,0.461 -5.331,0.461 v 6.028 H 66.312 V 44.979 L 58.082,44.168 46.949,31.647 64.227,0.811 71.064,0.231 V -5.913 H 43.706 v 5.217 L 31.882,20.288 H 26.547 V 2.317 c 0,-0.967 0.655,-1.469 1.046,-1.506 0.391,-0.038 6.373,-0.58 6.373,-0.58 V -5.913 H 0 Z"
             style="fill:#113d10;fill-opacity:1;fill-rule:nonzero;stroke:none"
             id="path68" /></g><g
           id="g70"
           transform="translate(225.5557,262.9092)"><path
             d="M 0,0 V 23.124 H -10.623 L -12.808,10.03 c -0.04,-0.243 -0.293,-1.462 -1.206,-1.462 h -24.911 v 26.736 h 12.638 c 0.695,0 1.215,-0.482 1.328,-1.227 0.139,-0.932 1.231,-8.632 1.231,-8.632 h 9.215 v 29.083 h -9.211 c 0,0 -1.1,-7.7 -1.235,-8.632 -0.107,-0.743 -0.627,-1.224 -1.328,-1.224 h -12.638 v 24.559 h 21.252 c 0.664,0 1.104,-0.327 1.206,-0.895 0.132,-0.73 1.957,-10.566 1.957,-10.566 h 10.855 v 20.027 h -66.488 v -7.51 l 8.327,-0.484 c 0.71,-0.041 1.469,-0.564 1.469,-1.276 V 9.726 c 0,-0.747 -0.798,-1.687 -1.471,-1.735 -0.953,-0.062 -8.325,-0.48 -8.325,-0.48 V 0 Z m 49.667,-1.605 c 9.573,0 18.582,1.495 27.691,4.479 V 25.071 H 65.806 L 62.665,9.815 c -0.15,-0.714 -0.73,-1.239 -1.521,-1.368 -1.83,-0.296 -4.168,-0.456 -6.76,-0.456 -15.847,0 -26.088,12.156 -26.088,30.967 0,18.667 10.241,30.73 26.088,30.73 2.424,0 4.627,-0.222 6.737,-0.677 0.838,-0.179 1.521,-0.791 1.663,-1.489 0.187,-0.924 2.902,-14.453 2.902,-14.453 h 11.672 v 21.498 c -8.564,3.15 -17.336,4.719 -26.984,4.719 -10.174,0 -19.224,-2.2 -26.178,-6.367 C 11.795,65.507 4.392,52.723 4.392,38.726 4.392,27.47 9.092,16.782 17.277,9.404 25.04,2.202 36.239,-1.605 49.667,-1.605 m -156.22,0 c -13.426,0 -24.627,3.807 -32.39,11.009 -8.185,7.378 -12.882,18.066 -12.882,29.322 0,13.997 7.403,26.781 19.803,34.193 6.951,4.167 16.003,6.367 26.172,6.367 9.651,0 18.424,-1.569 26.988,-4.719 V 53.069 h -11.673 c 0,0 -2.712,13.529 -2.901,14.453 -0.142,0.698 -0.824,1.31 -1.664,1.489 -2.11,0.455 -4.313,0.677 -6.735,0.677 -15.849,0 -26.089,-12.063 -26.089,-30.73 0,-18.811 10.24,-30.967 26.089,-30.967 2.593,0 4.929,0.16 6.758,0.456 0.79,0.129 1.373,0.654 1.522,1.368 l 3.14,15.256 h 11.553 V 2.874 c -9.11,-2.984 -18.117,-4.479 -27.691,-4.479"
             style="fill:#113d10;fill-opacity:1;fill-rule:nonzero;stroke:none"
             id="path72" /></g></g></g></g></svg>
